<svg width="19" height="19" viewBox="0 0 19 19" fill="none" xmlns="http://www.w3.org/2000/svg">
<path d="M9.5 1.58333C13.8652 1.58333 17.4167 5.13475 17.4167 9.5C17.4167 13.8652 13.8652 17.4167 9.5 17.4167C5.13475 17.4167 1.58333 13.8652 1.58333 9.5C1.58333 5.13475 5.13475 1.58333 9.5 1.58333ZM9.5 0C4.25363 0 0 4.25363 0 9.5C0 14.7464 4.25363 19 9.5 19C14.7464 19 19 14.7464 19 9.5C19 4.25363 14.7464 0 9.5 0ZM7.91667 6.33333C7.91667 6.77429 7.56279 7.13133 7.125 7.13133C6.68721 7.13133 6.33333 6.77508 6.33333 6.33333C6.33333 5.89237 6.68721 5.53533 7.125 5.53533C7.56279 5.53533 7.91667 5.89317 7.91667 6.33333ZM7.91667 7.91667H6.33333V12.6667H7.91667V7.91667ZM10.2917 7.91667H8.70833V12.6667H10.2917V10.4017C10.2917 9.03846 11.8766 8.91258 11.8766 10.4017V12.6667H13.4583V10.0075C13.4583 7.40762 10.982 7.50262 10.2917 8.78196V7.91667Z" fill="#FCFCFC"/>
</svg>
