<svg width="465" height="338" viewBox="0 0 465 338" fill="none" xmlns="http://www.w3.org/2000/svg">
<path fill-rule="evenodd" clip-rule="evenodd" d="M384.228 82.6749C380.041 92.5776 375.639 103.389 371.093 115.087C368.769 121.338 366.308 128.095 363.743 135.287C373.712 119.43 391.668 110.494 409.687 112.114C409.715 112.031 409.745 111.948 409.774 111.863L435.669 108.874L464.855 121.812C458.149 122.707 447.157 123.994 437.554 124.716C451.053 137.632 456.006 158.224 448.478 177.232C438.53 202.35 410.552 215.189 385.987 205.908C365.605 198.206 353.977 177.696 356.291 156.586C339.585 205.23 320.199 267.712 305.967 327.833L290.549 337.705C290.549 337.705 300.071 276.593 317.84 204.991C313.769 208.632 313.136 210.708 312.187 210.863C311.237 211.019 309.971 209.249 304.618 205.195C288.834 193.257 293.412 174.951 298.322 155.956C298.322 155.956 262.915 196.096 247.051 230.123C247.051 230.123 239.98 254.478 238.349 257.751C236.732 261.025 237.84 262.067 237.84 262.067C237.84 262.067 219.282 259.492 223.018 245.145L228.139 228.288C228.139 228.288 189.143 269.53 169.277 256.299C149.422 243.068 147.195 235.157 148.857 219.311L123.482 232.338C123.482 232.338 86.8436 344.463 25.4638 327.833C-5.34179 318.293 -0.929464 290.624 28.2908 268.325C47.2133 253.877 72.7122 237.196 100.193 223.748C100.193 223.748 125.134 150.084 106.124 165.492C87.1207 180.901 31.2616 246.308 31.2616 246.308C31.2616 246.308 25.3761 246.379 23.5453 249.08C23.5453 249.08 3.77047 254.114 0 243.574C0 243.574 57.7461 62.1199 71.3268 46.969C84.9075 31.8114 108.165 33.0191 108.165 33.0191C108.165 33.0191 103.153 39.4004 97.3553 54.3714C91.5575 69.3425 48.6338 182.886 46.2628 194.915C46.2628 194.915 83.0205 153.985 105.58 146.064C128.136 138.152 134.19 161.849 134.19 161.849C134.19 161.849 139.188 188.09 130.343 212.641L144.887 206.107C149.356 204.59 151.914 196.8 153.479 192.032C153.595 191.681 153.705 191.346 153.81 191.031C159.141 175.134 173.507 144.096 203.317 137.206C203.317 137.206 223.727 133.443 228.139 149.154C228.139 149.154 228.861 163.362 221.289 175.581C213.72 187.808 201.525 206.575 183.788 193.022C183.788 193.022 182.36 191.774 181.417 193.962C180.466 196.15 168.481 227.439 175.033 246.203C175.033 246.203 175.977 249.161 185.987 242.98C195.983 236.809 225.515 213.707 232.232 206.087C232.232 206.087 247.896 144.076 260.046 130.095C260.046 130.095 265.664 119.921 278.358 137.82L268.169 165.852C268.183 165.831 268.203 165.8 268.229 165.762C269.187 164.32 277.898 151.213 286.969 141.25C296.593 130.699 309.893 124.444 324.305 133.827C324.305 133.827 299.861 197.707 314.582 190.336C318.24 186.957 321.365 184.015 323.838 181.681C332.263 150.019 342.217 117.421 353.591 87.9469L231.715 108.912C231.715 108.912 229.376 110.863 226.837 108.767C227.924 100.686 238.032 91.855 238.032 91.855C294.491 80.3986 333.823 73.3897 361.216 69.1898C371.759 44.618 383.376 23.1741 396.013 7.62971C398.63 4.41023 402.544 2.35439 406.823 1.8964L424.427 0C424.427 0 411.179 21.6034 391.878 65.034C424.581 61.3769 424.094 64.8678 424.094 64.8678L417.973 76.867L384.228 82.6749ZM202.167 171.378C208.35 162.259 209.837 150.195 209.837 150.195C194.861 160.549 184.686 185.922 184.686 185.922C185.573 191.323 195.979 180.511 202.167 171.378ZM35.018 314.341C20.6096 295.574 90.0704 248.066 90.0704 248.066C63.0879 301.684 35.018 314.341 35.018 314.341ZM391.294 187.879C405.167 193.121 423.94 189.887 430.353 173.695C436.766 157.503 427.285 135.012 413.412 129.771C399.539 124.529 383.589 135.998 377.176 152.19C370.764 168.382 377.421 182.637 391.294 187.879Z" fill="#FCFCFC"/>
</svg>
